<svg width="24" height="24" viewBox="0 0 24 24" fill="none" xmlns="http://www.w3.org/2000/svg">
<path d="M5.57143 0H1.2C0.537258 0 0 0.537258 0 1.2V8C0 9.73575 1.40711 11.1429 3.14286 11.1429H5.57143C8.64844 11.1429 11.1429 8.64844 11.1429 5.57143C11.1429 2.49441 8.64844 0 5.57143 0Z" fill="#2563EB"/>
<path d="M18.4286 0H22.8C23.4627 0 24 0.537258 24 1.2V8C24 9.73575 22.5929 11.1429 20.8571 11.1429H18.4286C15.3516 11.1429 12.8571 8.64844 12.8571 5.57143C12.8571 2.49441 15.3516 0 18.4286 0Z" fill="#2563EB"/>
<path d="M22.8 24H18.4286C15.3516 24 12.8571 21.5056 12.8571 18.4286C12.8571 15.3516 15.3516 12.8571 18.4286 12.8571H20.8571C22.5929 12.8571 24 14.2642 24 16V22.8C24 23.4627 23.4627 24 22.8 24Z" fill="#2563EB"/>
<path d="M5.57143 24H1.2C0.537258 24 0 23.4627 0 22.8V16C0 14.2642 1.40711 12.8571 3.14286 12.8571H5.57143C8.64844 12.8571 11.1429 15.3516 11.1429 18.4286C11.1429 21.5056 8.64844 24 5.57143 24Z" fill="#2563EB"/>
</svg>
